<?xml version="1.0" encoding="UTF-8" standalone="no"?>
<!DOCTYPE svg PUBLIC "-//W3C//DTD SVG 1.1//EN"
 "http://www.w3.org/Graphics/SVG/1.1/DTD/svg11.dtd">
<!-- Generated by graphviz version 2.40.1 (20161225.0304)
 -->
<!-- Title: %3 Pages: 1 -->
<svg width="216pt" height="168pt"
 viewBox="0.00 0.00 216.00 167.53" xmlns="http://www.w3.org/2000/svg" xmlns:xlink="http://www.w3.org/1999/xlink">
<g id="graph0" class="graph" transform="scale(.2308 .2308) rotate(0) translate(4 722)">
<title>%3</title>
<polygon fill="#ffffff" stroke="transparent" points="-4,4 -4,-722 932.0605,-722 932.0605,4 -4,4"/>
<!-- 15384723 -->
<g id="node1" class="node">
<title>15384723</title>
<polygon fill="#adff2f" stroke="#000000" points="421.8101,-64 187.7866,-64 187.7866,0 421.8101,0 421.8101,-64"/>
<text text-anchor="middle" x="304.7983" y="-48.8" font-family="Times,serif" font-size="14.00" fill="#000000">U.S. Pat. 10131248</text>
<text text-anchor="middle" x="304.7983" y="-34.8" font-family="Times,serif" font-size="14.00" fill="#000000">Control System for an All&#45;</text>
<text text-anchor="middle" x="304.7983" y="-20.8" font-family="Times,serif" font-size="14.00" fill="#000000">Wheel Drive Electric Vehicle</text>
<text text-anchor="middle" x="304.7983" y="-6.8" font-family="Times,serif" font-size="14.00" fill="#000000">(Filed 2016&#45;12&#45;20, Issued 2018&#45;11&#45;20)</text>
</g>
<!-- 12322218 -->
<g id="node2" class="node">
<title>12322218</title>
<polygon fill="#ff0000" stroke="#000000" points="310.3955,-718 141.2012,-718 141.2012,-626 310.3955,-626 310.3955,-718"/>
<text text-anchor="middle" x="225.7983" y="-702.8" font-family="Times,serif" font-size="14.00" fill="#000000">U.S. App. 12322218</text>
<text text-anchor="middle" x="225.7983" y="-688.8" font-family="Times,serif" font-size="14.00" fill="#000000">All Wheel Drive Electric</text>
<text text-anchor="middle" x="225.7983" y="-674.8" font-family="Times,serif" font-size="14.00" fill="#000000">Vehicle Power Assist Drive</text>
<text text-anchor="middle" x="225.7983" y="-660.8" font-family="Times,serif" font-size="14.00" fill="#000000">System</text>
<text text-anchor="middle" x="225.7983" y="-646.8" font-family="Times,serif" font-size="14.00" fill="#000000">(Filed 2009&#45;01&#45;29)</text>
<text text-anchor="middle" x="225.7983" y="-632.8" font-family="Times,serif" font-size="14.00" fill="#000000">Abandoned (2011&#45;06&#45;13)</text>
</g>
<!-- 12378790 -->
<g id="node3" class="node">
<title>12378790</title>
<polygon fill="#ff0000" stroke="#000000" points="169.3955,-576 .2012,-576 .2012,-484 169.3955,-484 169.3955,-576"/>
<text text-anchor="middle" x="84.7983" y="-560.8" font-family="Times,serif" font-size="14.00" fill="#000000">U.S. App. 12378790</text>
<text text-anchor="middle" x="84.7983" y="-546.8" font-family="Times,serif" font-size="14.00" fill="#000000">All Wheel Drive Electric</text>
<text text-anchor="middle" x="84.7983" y="-532.8" font-family="Times,serif" font-size="14.00" fill="#000000">Vehicle Power Assist Drive</text>
<text text-anchor="middle" x="84.7983" y="-518.8" font-family="Times,serif" font-size="14.00" fill="#000000">System</text>
<text text-anchor="middle" x="84.7983" y="-504.8" font-family="Times,serif" font-size="14.00" fill="#000000">(Filed 2009&#45;02&#45;19)</text>
<text text-anchor="middle" x="84.7983" y="-490.8" font-family="Times,serif" font-size="14.00" fill="#000000">Abandoned (2011&#45;05&#45;21)</text>
</g>
<!-- 12322218&#45;&gt;12378790 -->
<g id="edge2" class="edge">
<title>12322218&#45;&gt;12378790</title>
<path fill="none" stroke="#000000" d="M180.0197,-625.8967C166.5984,-612.3802 151.8084,-597.4853 137.9684,-583.5471"/>
<polygon fill="#000000" stroke="#000000" points="140.3595,-580.9879 130.8298,-576.3579 135.3923,-585.9201 140.3595,-580.9879"/>
<text text-anchor="middle" x="174.5776" y="-596.8" font-family="Times,serif" font-size="14.00" fill="#000000">CON</text>
</g>
<!-- 12782413 -->
<g id="node8" class="node">
<title>12782413</title>
<polygon fill="#adff2f" stroke="#000000" points="421.8232,-562 187.7734,-562 187.7734,-498 421.8232,-498 421.8232,-562"/>
<text text-anchor="middle" x="304.7983" y="-546.8" font-family="Times,serif" font-size="14.00" fill="#000000">U.S. Pat. 8453770</text>
<text text-anchor="middle" x="304.7983" y="-532.8" font-family="Times,serif" font-size="14.00" fill="#000000">Dual Motor Drive and Control</text>
<text text-anchor="middle" x="304.7983" y="-518.8" font-family="Times,serif" font-size="14.00" fill="#000000">System for an Electric Vehicle</text>
<text text-anchor="middle" x="304.7983" y="-504.8" font-family="Times,serif" font-size="14.00" fill="#000000">(Filed 2010&#45;05&#45;18, Issued 2013&#45;06&#45;04)</text>
</g>
<!-- 12322218&#45;&gt;12782413 -->
<g id="edge6" class="edge">
<title>12322218&#45;&gt;12782413</title>
<path fill="none" stroke="#000000" d="M251.4474,-625.8967C261.179,-608.4044 272.1949,-588.6037 281.6794,-571.5556"/>
<polygon fill="#000000" stroke="#000000" points="284.97,-572.84 286.7732,-562.3997 278.8529,-569.4368 284.97,-572.84"/>
<text text-anchor="middle" x="278.6914" y="-596.8" font-family="Times,serif" font-size="14.00" fill="#000000">CIP</text>
</g>
<!-- 12586493 -->
<g id="node7" class="node">
<title>12586493</title>
<polygon fill="#ff0000" stroke="#000000" points="169.3955,-434 .2012,-434 .2012,-342 169.3955,-342 169.3955,-434"/>
<text text-anchor="middle" x="84.7983" y="-418.8" font-family="Times,serif" font-size="14.00" fill="#000000">U.S. App. 12586493</text>
<text text-anchor="middle" x="84.7983" y="-404.8" font-family="Times,serif" font-size="14.00" fill="#000000">All Wheel Drive Electric</text>
<text text-anchor="middle" x="84.7983" y="-390.8" font-family="Times,serif" font-size="14.00" fill="#000000">Vehicle Power Assist Drive</text>
<text text-anchor="middle" x="84.7983" y="-376.8" font-family="Times,serif" font-size="14.00" fill="#000000">System</text>
<text text-anchor="middle" x="84.7983" y="-362.8" font-family="Times,serif" font-size="14.00" fill="#000000">(Filed 2009&#45;09&#45;23)</text>
<text text-anchor="middle" x="84.7983" y="-348.8" font-family="Times,serif" font-size="14.00" fill="#000000">Abandoned (2011&#45;06&#45;02)</text>
</g>
<!-- 12378790&#45;&gt;12586493 -->
<g id="edge5" class="edge">
<title>12378790&#45;&gt;12586493</title>
<path fill="none" stroke="#000000" d="M84.7983,-483.8967C84.7983,-471.3722 84.7983,-457.6643 84.7983,-444.6306"/>
<polygon fill="#000000" stroke="#000000" points="88.2984,-444.3579 84.7983,-434.3579 81.2984,-444.358 88.2984,-444.3579"/>
<text text-anchor="middle" x="97.2397" y="-454.8" font-family="Times,serif" font-size="14.00" fill="#000000">DIV</text>
</g>
<!-- 12380427 -->
<g id="node4" class="node">
<title>12380427</title>
<polygon fill="#adff2f" stroke="#000000" points="674.8232,-704 440.7734,-704 440.7734,-640 674.8232,-640 674.8232,-704"/>
<text text-anchor="middle" x="557.7983" y="-688.8" font-family="Times,serif" font-size="14.00" fill="#000000">U.S. Pat. 7739005</text>
<text text-anchor="middle" x="557.7983" y="-674.8" font-family="Times,serif" font-size="14.00" fill="#000000">Control System for an All&#45;</text>
<text text-anchor="middle" x="557.7983" y="-660.8" font-family="Times,serif" font-size="14.00" fill="#000000">Wheel Drive Electric Vehicle</text>
<text text-anchor="middle" x="557.7983" y="-646.8" font-family="Times,serif" font-size="14.00" fill="#000000">(Filed 2009&#45;02&#45;26, Issued 2010&#45;06&#45;15)</text>
</g>
<!-- 12381846 -->
<g id="node5" class="node">
<title>12381846</title>
<polygon fill="#adff2f" stroke="#000000" points="674.8232,-562 440.7734,-562 440.7734,-498 674.8232,-498 674.8232,-562"/>
<text text-anchor="middle" x="557.7983" y="-546.8" font-family="Times,serif" font-size="14.00" fill="#000000">U.S. Pat. 7742852</text>
<text text-anchor="middle" x="557.7983" y="-532.8" font-family="Times,serif" font-size="14.00" fill="#000000">Control System for an All&#45;</text>
<text text-anchor="middle" x="557.7983" y="-518.8" font-family="Times,serif" font-size="14.00" fill="#000000">Wheel Drive Electric Vehicle</text>
<text text-anchor="middle" x="557.7983" y="-504.8" font-family="Times,serif" font-size="14.00" fill="#000000">(Filed 2009&#45;03&#45;17, Issued 2010&#45;06&#45;22)</text>
</g>
<!-- 12380427&#45;&gt;12381846 -->
<g id="edge3" class="edge">
<title>12380427&#45;&gt;12381846</title>
<path fill="none" stroke="#000000" d="M557.7983,-639.778C557.7983,-619.8068 557.7983,-593.9309 557.7983,-572.3177"/>
<polygon fill="#000000" stroke="#000000" points="561.2984,-572.0944 557.7983,-562.0945 554.2984,-572.0945 561.2984,-572.0944"/>
<text text-anchor="middle" x="572.5776" y="-596.8" font-family="Times,serif" font-size="14.00" fill="#000000">CON</text>
</g>
<!-- 12381853 -->
<g id="node6" class="node">
<title>12381853</title>
<polygon fill="#adff2f" stroke="#000000" points="927.8232,-562 693.7734,-562 693.7734,-498 927.8232,-498 927.8232,-562"/>
<text text-anchor="middle" x="810.7983" y="-546.8" font-family="Times,serif" font-size="14.00" fill="#000000">U.S. Pat. 7747363</text>
<text text-anchor="middle" x="810.7983" y="-532.8" font-family="Times,serif" font-size="14.00" fill="#000000">Traction Control System for an</text>
<text text-anchor="middle" x="810.7983" y="-518.8" font-family="Times,serif" font-size="14.00" fill="#000000">Electric Vehicle</text>
<text text-anchor="middle" x="810.7983" y="-504.8" font-family="Times,serif" font-size="14.00" fill="#000000">(Filed 2009&#45;03&#45;17, Issued 2010&#45;06&#45;29)</text>
</g>
<!-- 12380427&#45;&gt;12381853 -->
<g id="edge4" class="edge">
<title>12380427&#45;&gt;12381853</title>
<path fill="none" stroke="#000000" d="M614.8919,-639.9554C653.3723,-618.3577 704.2629,-589.7946 744.531,-567.1935"/>
<polygon fill="#000000" stroke="#000000" points="746.4679,-570.1201 753.4752,-562.1735 743.0418,-564.0158 746.4679,-570.1201"/>
<text text-anchor="middle" x="707.5776" y="-596.8" font-family="Times,serif" font-size="14.00" fill="#000000">CON</text>
</g>
<!-- 12380427&#45;&gt;12782413 -->
<g id="edge7" class="edge">
<title>12380427&#45;&gt;12782413</title>
<path fill="none" stroke="#000000" d="M500.7047,-639.9554C462.2244,-618.3577 411.3338,-589.7946 371.0657,-567.1935"/>
<polygon fill="#000000" stroke="#000000" points="372.5549,-564.0158 362.1215,-562.1735 369.1288,-570.1201 372.5549,-564.0158"/>
<text text-anchor="middle" x="450.6914" y="-596.8" font-family="Times,serif" font-size="14.00" fill="#000000">CIP</text>
</g>
<!-- 13866214 -->
<g id="node9" class="node">
<title>13866214</title>
<polygon fill="#adff2f" stroke="#000000" points="421.8232,-427 187.7734,-427 187.7734,-349 421.8232,-349 421.8232,-427"/>
<text text-anchor="middle" x="304.7983" y="-411.8" font-family="Times,serif" font-size="14.00" fill="#000000">U.S. Pat. 8761985</text>
<text text-anchor="middle" x="304.7983" y="-397.8" font-family="Times,serif" font-size="14.00" fill="#000000">Method of Operating a Dual</text>
<text text-anchor="middle" x="304.7983" y="-383.8" font-family="Times,serif" font-size="14.00" fill="#000000">Motor Drive and Control System</text>
<text text-anchor="middle" x="304.7983" y="-369.8" font-family="Times,serif" font-size="14.00" fill="#000000">for an Electric Vehicle</text>
<text text-anchor="middle" x="304.7983" y="-355.8" font-family="Times,serif" font-size="14.00" fill="#000000">(Filed 2013&#45;04&#45;19, Issued 2014&#45;06&#45;24)</text>
</g>
<!-- 12782413&#45;&gt;13866214 -->
<g id="edge8" class="edge">
<title>12782413&#45;&gt;13866214</title>
<path fill="none" stroke="#000000" d="M304.7983,-497.778C304.7983,-479.9395 304.7983,-457.39 304.7983,-437.3751"/>
<polygon fill="#000000" stroke="#000000" points="308.2984,-437.178 304.7983,-427.178 301.2984,-437.1781 308.2984,-437.178"/>
<text text-anchor="middle" x="317.2397" y="-454.8" font-family="Times,serif" font-size="14.00" fill="#000000">DIV</text>
</g>
<!-- 14281679 -->
<g id="node10" class="node">
<title>14281679</title>
<polygon fill="#adff2f" stroke="#000000" points="421.8232,-292 187.7734,-292 187.7734,-228 421.8232,-228 421.8232,-292"/>
<text text-anchor="middle" x="304.7983" y="-276.8" font-family="Times,serif" font-size="14.00" fill="#000000">U.S. Pat. 9162586</text>
<text text-anchor="middle" x="304.7983" y="-262.8" font-family="Times,serif" font-size="14.00" fill="#000000">Control System for an All&#45;</text>
<text text-anchor="middle" x="304.7983" y="-248.8" font-family="Times,serif" font-size="14.00" fill="#000000">Wheel Drive Electric Vehicle</text>
<text text-anchor="middle" x="304.7983" y="-234.8" font-family="Times,serif" font-size="14.00" fill="#000000">(Filed 2014&#45;05&#45;19, Issued 2015&#45;10&#45;20)</text>
</g>
<!-- 13866214&#45;&gt;14281679 -->
<g id="edge9" class="edge">
<title>13866214&#45;&gt;14281679</title>
<path fill="none" stroke="#000000" d="M304.7983,-348.9003C304.7983,-334.2054 304.7983,-317.4355 304.7983,-302.4503"/>
<polygon fill="#000000" stroke="#000000" points="308.2984,-302.4083 304.7983,-292.4084 301.2984,-302.4084 308.2984,-302.4083"/>
<text text-anchor="middle" x="319.5776" y="-312.8" font-family="Times,serif" font-size="14.00" fill="#000000">CON</text>
</g>
<!-- 14862609 -->
<g id="node11" class="node">
<title>14862609</title>
<polygon fill="#adff2f" stroke="#000000" points="421.8232,-178 187.7734,-178 187.7734,-114 421.8232,-114 421.8232,-178"/>
<text text-anchor="middle" x="304.7983" y="-162.8" font-family="Times,serif" font-size="14.00" fill="#000000">U.S. Pat. 9527406</text>
<text text-anchor="middle" x="304.7983" y="-148.8" font-family="Times,serif" font-size="14.00" fill="#000000">Control System for an All&#45;</text>
<text text-anchor="middle" x="304.7983" y="-134.8" font-family="Times,serif" font-size="14.00" fill="#000000">Wheel Drive Electric Vehicle</text>
<text text-anchor="middle" x="304.7983" y="-120.8" font-family="Times,serif" font-size="14.00" fill="#000000">(Filed 2015&#45;09&#45;23, Issued 2016&#45;12&#45;27)</text>
</g>
<!-- 14281679&#45;&gt;14862609 -->
<g id="edge10" class="edge">
<title>14281679&#45;&gt;14862609</title>
<path fill="none" stroke="#000000" d="M304.7983,-227.9413C304.7983,-215.6776 304.7983,-201.4952 304.7983,-188.4121"/>
<polygon fill="#000000" stroke="#000000" points="308.2984,-188.2131 304.7983,-178.2131 301.2984,-188.2131 308.2984,-188.2131"/>
<text text-anchor="middle" x="319.5776" y="-198.8" font-family="Times,serif" font-size="14.00" fill="#000000">CON</text>
</g>
<!-- 14862609&#45;&gt;15384723 -->
<g id="edge1" class="edge">
<title>14862609&#45;&gt;15384723</title>
<path fill="none" stroke="#000000" d="M304.7983,-113.9413C304.7983,-101.6776 304.7983,-87.4952 304.7983,-74.4121"/>
<polygon fill="#000000" stroke="#000000" points="308.2984,-74.2131 304.7983,-64.2131 301.2984,-74.2131 308.2984,-74.2131"/>
<text text-anchor="middle" x="319.5776" y="-84.8" font-family="Times,serif" font-size="14.00" fill="#000000">CON</text>
</g>
</g>
</svg>
