<?xml version="1.0" encoding="UTF-8"?>
<!-- Created with Inkscape (http://www.inkscape.org/) -->
<svg width="800" height="150" version="1.1" viewBox="0 0 211.67 39.688" xmlns="http://www.w3.org/2000/svg">
 <path d="m10.301 17.058a6.3752 6.565 0 0 1-0.40556-2.3041 6.3752 6.565 0 0 1 6.3752-6.565 6.3752 6.565 0 0 1 6.3752 6.565 6.3752 6.565 0 0 1-0.4055 2.304" fill="none" stroke="#008cc8" stroke-linejoin="round" stroke-width="1.2155"/>
 <g transform="matrix(1.0234 0 0 1.0234 -39.305 -49.193)" fill="#008cc8" style="shape-inside:url(#rect5204);white-space:pre" aria-label="PATENT CLIENT">
  <path d="m65.662 79.461v-24h5.92q2.48 0 3.952 1.536 1.488 1.536 1.488 4.064v2.8q0 2.512-1.488 4.064-1.472 1.536-3.952 1.536h-2.88v10zm3.04-13.04h2.88q1.104 0 1.744-0.704 0.656-0.704 0.656-1.856v-2.8q0-1.152-0.656-1.856-0.64-0.704-1.744-0.704h-2.88z"/>
  <path d="m78.254 79.461 4.992-24h3.264l4.944 24h-3.12l-0.864-4.448h-5.216l-0.88 4.448zm4.512-7.488h4.192l-2.08-11.088z"/>
  <path d="m96.142 79.461v-20.96h-3.92v-3.04h10.88v3.04h-3.92v20.96z"/>
  <path d="m116.03 55.461v3.04h-6.72v7.2h5.856v3.04h-5.856v7.68h6.72v3.04h-9.76v-24z"/>
  <path d="m120.05 79.461v-24h2.48l6 16v-16h2.88v24h-2.48l-6-16v16z"/>
  <path d="m138.49 79.461v-20.96h-3.92v-3.04h10.88v3.04h-3.92v20.96z"/>
  <path d="m166.91 73.093v0.96q0 2.656-1.568 4.288t-4.192 1.632q-2.608 0-4.192-1.632-1.568-1.632-1.568-4.288v-13.184q0-2.672 1.568-4.288 1.584-1.632 4.192-1.632 2.624 0 4.192 1.632 1.568 1.616 1.568 4.288v0.96h-3.04v-0.96q0-1.296-0.736-2.08-0.736-0.8-1.984-0.8t-1.984 0.8q-0.736 0.784-0.736 2.08v13.184q0 1.296 0.736 2.096 0.736 0.784 1.984 0.784t1.984-0.784q0.736-0.8 0.736-2.096v-0.96z"/>
  <path d="m173.95 55.461v20.96h6.08v3.04h-9.12v-24z"/>
  <path d="m186.32 79.461h-3.04v-24h3.04z"/>
  <path d="m201.39 55.461v3.04h-6.72v7.2h5.856v3.04h-5.856v7.68h6.72v3.04h-9.76v-24z"/>
  <path d="m205.41 79.461v-24h2.48l6 16v-16h2.88v24h-2.48l-6-16v16z"/>
  <path d="m223.85 79.461v-20.96h-3.92v-3.04h10.88v3.04h-3.92v20.96z"/>
 </g>
 <rect x="4.2196" y="4.0312" width="203.77" height="31.967" fill-opacity="0" stroke="#008cc8" stroke-width="2.1538"/>
 <g fill="none" stroke="#008cc8">
  <path d="m11.719 16.054 4.4793 11.064" stroke-linecap="round" stroke-width="1.1878"/>
  <path d="m10.482 17.492 4.4793 11.064" stroke-linecap="square" stroke-width="1.1874"/>
  <path d="m22.104 17.403-4.4793 11.064" stroke-linecap="square" stroke-width="1.1878"/>
 </g>
 <circle cx="16.312" cy="14.859" r="4.7353" fill-opacity="0" stroke="#008cc8" stroke-linejoin="round" stroke-width="1.1878"/>
 <g fill="none" stroke="#008cc8">
  <path d="m18.639 16.322a2.787 2.787 0 0 1-2.3718 1.3235 2.787 2.787 0 0 1-2.787-2.787 2.787 2.787 0 0 1 2.787-2.787 2.787 2.787 0 0 1 2.4362 1.4335" stroke-linejoin="round" stroke-width="1.1878"/>
  <g stroke-linecap="round">
   <path d="m13.972 28.851h4.6431" stroke-width="1.1878"/>
   <path d="m14.265 30.346h4.1454" stroke-width="1.1223"/>
   <path d="m14.639 31.797h3.4424" stroke-width="1.1878"/>
  </g>
 </g>
 <text x="198.39355" y="12.289536" fill="#008cc8" font-family="Mohave" font-size="6.4078px" stroke-width=".48058" style="line-height:1.25" xml:space="preserve"><tspan x="198.39355" y="12.289536" fill="#008cc8" font-size="6.4078px" stroke-width=".48058">TM</tspan></text>
</svg>
