<?xml version="1.0" encoding="UTF-8"?>
<!-- Created with Inkscape (http://www.inkscape.org/) -->
<svg width="200" height="131" version="1.1" viewBox="0 0 52.917 34.66" xmlns="http://www.w3.org/2000/svg">
 <g fill="none" stroke="#008cc8">
  <path d="m4.4815 14.25a7.0603 7.2705 0 0 1-0.44914-2.5518 7.0603 7.2705 0 0 1 7.0603-7.2705 7.0603 7.2705 0 0 1 7.0603 7.2705 7.0603 7.2705 0 0 1-0.44909 2.5516" stroke-linejoin="round" stroke-width="1.3461"/>
  <g>
   <path d="m6.0519 13.139 4.9606 12.253" stroke-linecap="round" stroke-width="1.3154"/>
   <path d="m4.6817 14.731 4.9606 12.253" stroke-linecap="square" stroke-width="1.315"/>
   <path d="m17.553 14.632-4.9606 12.253" stroke-linecap="square" stroke-width="1.3154"/>
  </g>
 </g>
 <circle cx="11.138" cy="11.814" r="5.2442" fill-opacity="0" stroke="#008cc8" stroke-linejoin="round" stroke-width="1.3154"/>
 <g fill="none" stroke="#008cc8">
  <path d="m13.715 13.435a3.0864 3.0864 0 0 1-2.6267 1.4657 3.0864 3.0864 0 0 1-3.0864-3.0865 3.0864 3.0864 0 0 1 3.0864-3.0864 3.0864 3.0864 0 0 1 2.698 1.5875" stroke-linejoin="round" stroke-width="1.3154"/>
  <g stroke-linecap="round">
   <path d="m8.5464 27.31h5.142" stroke-width="1.3154"/>
   <path d="m8.8715 28.966h4.5908" stroke-width="1.2429"/>
   <path d="m9.2854 30.573h3.8124" stroke-width="1.3154"/>
  </g>
 </g>
 <g fill="#008cc8" stroke-width=".27583" aria-label="PATENT">
  <path d="m19.59 15.839v-8.275h2.0412q0.85508 0 1.3626 0.5296 0.51305 0.5296 0.51305 1.4012v0.96541q0 0.86611-0.51305 1.4012-0.50753 0.5296-1.3626 0.5296h-0.993v3.4479zm1.0482-4.4961h0.993q0.38065 0 0.60132-0.24273 0.22618-0.24273 0.22618-0.63993v-0.96541q0-0.3972-0.22618-0.63993-0.22067-0.24273-0.60132-0.24273h-0.993z"/>
  <path d="m23.931 15.839 1.7212-8.275h1.1254l1.7046 8.275h-1.0757l-0.2979-1.5336h-1.7984l-0.30342 1.5336zm1.5557-2.5818h1.4454l-0.71716-3.823z"/>
  <path d="m30.099 15.839v-7.2268h-1.3516v-1.0482h3.7513v1.0482h-1.3516v7.2268z"/>
  <path d="m36.956 7.5639v1.0482h-2.317v2.4825h2.0191v1.0482h-2.0191v2.648h2.317v1.0482h-3.3652v-8.275z"/>
  <path d="m38.341 15.839v-8.275h0.85508l2.0687 5.5166v-5.5166h0.993v8.275h-0.85508l-2.0687-5.5167v5.5167z"/>
  <path d="m44.701 15.839v-7.2268h-1.3516v-1.0482h3.7513v1.0482h-1.3516v7.2268z"/>
 </g>
 <g fill="#008cc8" stroke-width=".27583" aria-label="CLIENT">
  <path d="m23.47 24.43v0.331q0 0.91576-0.54063 1.4785-0.54063 0.5627-1.4454 0.5627-0.89921 0-1.4454-0.5627-0.54063-0.5627-0.54063-1.4785v-4.5457q0-0.92128 0.54063-1.4785 0.54615-0.5627 1.4454-0.5627 0.90473 0 1.4454 0.5627 0.54063 0.55718 0.54063 1.4785v0.331h-1.0482v-0.331q0-0.44685-0.25377-0.71716-0.25377-0.27583-0.68406-0.27583t-0.68406 0.27583q-0.25377 0.27032-0.25377 0.71716v4.5457q0 0.44685 0.25377 0.72268 0.25376 0.27032 0.68406 0.27032t0.68406-0.27032q0.25377-0.27583 0.25377-0.72268v-0.331z"/>
  <path d="m25.897 18.351v7.2268h2.0963v1.0482h-3.1445v-8.275z"/>
  <path d="m30.162 26.626h-1.0482v-8.275h1.0482z"/>
  <path d="m35.359 18.351v1.0482h-2.317v2.4825h2.0191v1.0482h-2.0191v2.648h2.317v1.0482h-3.3652v-8.275z"/>
  <path d="m36.743 26.626v-8.275h0.85508l2.0687 5.5166v-5.5166h0.993v8.275h-0.85508l-2.0687-5.5166v5.5166z"/>
  <path d="m43.104 26.626v-7.2268h-1.3516v-1.0482h3.7513v1.0482h-1.3516v7.2268z"/>
 </g>
 <rect x="1.7557" y="1.7557" width="49.405" height="31.204" fill="none" stroke="#008cc8" stroke-linecap="square" stroke-width=".8"/>
 <g transform="matrix(.234 0 0 .234 27.204 -13.821)" fill="#008cc8" style="shape-inside:url(#rect291);white-space:pre" aria-label="TM">
  <path d="m81.705 146.65v-7.86h-1.47v-1.14h4.08v1.14h-1.47v7.86z"/>
  <path d="m85.503 146.65v-9h1.104l1.824 6.966 1.824-6.966h1.104v9h-1.08v-5.4l-1.44 5.4h-0.816l-1.44-5.4v5.4z"/>
 </g>
</svg>
